# Blender v2.79 (sub 0) OBJ File: ''
# www.blender.org
mtllib big_needle_tree.mtl
o Tree_2_Cylinder
v 1.485131 -1.980683 -0.275400
v 1.527535 -0.955589 -0.123393
v 1.679868 -1.980683 -0.194737
v 1.614787 -0.955589 -0.087252
v 1.760531 -1.980683 0.000000
v 1.650928 -0.955589 0.000000
v 1.679868 -1.980683 0.194738
v 1.614787 -0.955589 0.087253
v 1.485131 -1.980683 0.275401
v 1.527535 -0.955589 0.123394
v 1.290393 -1.980683 0.194738
v 1.440283 -0.955589 0.087253
v 1.209730 -1.980683 0.000000
v 1.404141 -0.955589 0.000000
v 1.290393 -1.980683 -0.194737
v 1.440283 -0.955589 -0.087252
v 1.498550 -0.385278 -0.081013
v 1.555835 -0.385278 -0.057285
v 1.579563 -0.385278 0.000000
v 1.555835 -0.385278 0.057285
v 1.498550 -0.385278 0.081013
v 1.441265 -0.385278 0.057285
v 1.417537 -0.385278 0.000000
v 1.441265 -0.385278 -0.057285
v 1.491840 -0.456882 -1.163836
v 1.598119 3.543634 -0.000000
v 2.310212 -0.370129 -0.822957
v 2.649192 -0.334194 0.000000
v 2.310212 -0.370128 0.822957
v 1.491840 -0.456881 1.163837
v 0.673469 -0.543635 0.822957
v 0.334488 -0.579569 0.000000
v 0.673469 -0.543635 -0.822957
v 1.580902 0.406080 -1.000000
v 1.491840 1.272847 -0.925709
v 1.379120 2.137712 -0.752304
v 1.957526 2.137712 -0.578407
v 2.134617 1.396565 -0.654575
v 2.198443 0.370930 -0.707107
v 2.309830 2.137712 -0.000000
v 2.400864 1.447811 0.000000
v 2.490863 0.354286 0.000000
v 1.957526 2.137712 0.578406
v 2.134617 1.396565 0.654575
v 2.198443 0.370930 0.707107
v 1.379120 2.137712 0.752304
v 1.491840 1.272847 0.925709
v 1.580901 0.406080 1.000000
v 0.913433 2.137712 0.578406
v 0.849063 1.149130 0.654575
v 0.786514 0.451296 0.707107
v 0.673850 2.137712 -0.000000
v 0.582816 1.097884 -0.000000
v 0.494095 0.467940 0.000000
v 0.913433 2.137712 -0.578407
v 0.849063 1.149129 -0.654575
v 0.786514 0.451296 -0.707107
v 1.926514 0.367055 -0.347272
v 2.070127 0.358881 0.000000
v 1.926514 0.367055 0.347272
v 1.579803 0.386788 0.491117
v 1.233092 0.406521 0.347272
v 1.089480 0.414694 0.000000
v 1.233092 0.406520 -0.347272
v 1.579803 0.386787 -0.491117
v 1.379120 2.137712 -0.303040
v 1.592975 2.151229 -0.214282
v 1.681556 2.156828 -0.000000
v 1.592975 2.151229 0.214282
v 1.379120 2.137712 0.303040
v 1.165265 2.124196 0.214282
v 1.076683 2.118597 -0.000000
v 1.165265 2.124196 -0.214282
v 1.491840 1.272847 -0.340284
v 1.730987 1.299410 -0.240617
v 1.830044 1.310413 0.000000
v 1.730987 1.299410 0.240617
v 1.491840 1.272847 0.340284
v 1.252694 1.246284 0.240617
v 1.153636 1.235282 -0.000000
v 1.252694 1.246284 -0.240617
v 1.491840 2.821349 -0.358592
v 1.745206 2.717689 -0.273752
v 1.850154 2.674751 -0.000000
v 1.745206 2.717689 0.273751
v 1.491840 2.821349 0.358592
v 1.238474 2.925010 0.273751
v 1.133526 2.967948 -0.000000
v 1.238474 2.925010 -0.273752
v 2.106775 0.085327 -0.585114
v 2.343271 0.135187 0.000000
v 2.106775 0.085327 0.585115
v 1.535822 -0.035047 0.827477
v 0.964869 -0.155421 0.585115
v 0.728372 -0.205281 0.000000
v 0.964869 -0.155421 -0.585114
v 1.535822 -0.035047 -0.827477
v 1.953919 0.741920 -0.473862
v 2.145038 0.699553 0.000000
v 1.953919 0.741920 0.473862
v 1.535303 0.832794 0.670142
v 1.031112 0.946487 0.473862
v 0.839993 0.988854 0.000000
v 1.031112 0.946487 -0.473862
v 1.535303 0.832793 -0.670142
v 1.827271 1.891458 -0.434428
v 1.989557 1.968576 -0.000000
v 1.827271 1.891458 0.434428
v 1.435480 1.705280 0.614374
v 1.043688 1.519102 0.434428
v 0.881403 1.441984 -0.000000
v 1.043688 1.519101 -0.434428
v 1.435480 1.705280 -0.614374
vt 0.714435 0.257635
vt 0.714364 0.259420
vt 0.714235 0.259390
vt 0.714149 0.257566
vt 0.714063 0.259411
vt 0.713765 0.257614
vt 0.713948 0.259473
vt 0.713508 0.257751
vt 0.714552 0.254100
vt 0.714552 0.255930
vt 0.714379 0.255932
vt 0.714165 0.254106
vt 0.714256 0.255982
vt 0.713890 0.254218
vt 0.708870 0.263508
vt 0.708870 0.265402
vt 0.708697 0.265408
vt 0.708484 0.263523
vt 0.714351 0.260402
vt 0.714238 0.260417
vt 0.708575 0.265454
vt 0.708212 0.263626
vt 0.705810 0.260888
vt 0.705985 0.259046
vt 0.706159 0.259046
vt 0.706197 0.260888
vt 0.705214 0.260898
vt 0.705487 0.261173
vt 0.705487 0.261562
vt 0.705214 0.261836
vt 0.704827 0.261837
vt 0.704554 0.261562
vt 0.704554 0.261174
vt 0.704827 0.260899
vt 0.709170 0.260805
vt 0.709170 0.260919
vt 0.709089 0.261000
vt 0.708975 0.261000
vt 0.708895 0.260919
vt 0.708895 0.260805
vt 0.708975 0.260724
vt 0.709089 0.260724
vt 0.714379 0.256936
vt 0.714298 0.256969
vt 0.705963 0.258066
vt 0.706077 0.258066
vt 0.714435 0.260423
vt 0.714162 0.260457
vt 0.708862 0.266402
vt 0.708748 0.266406
vt 0.714493 0.256935
vt 0.708669 0.266436
vt 0.962762 0.667722
vt 0.963864 0.665465
vt 0.963353 0.668252
vt 0.964298 0.668328
vt 0.964961 0.667924
vt 0.974384 0.672808
vt 0.975492 0.675426
vt 0.973749 0.673471
vt 0.973380 0.674228
vt 0.965131 0.675281
vt 0.965155 0.677662
vt 0.964226 0.675577
vt 0.973779 0.659830
vt 0.975754 0.658525
vt 0.974235 0.660442
vt 0.974936 0.661013
vt 0.960765 0.665465
vt 0.958744 0.663436
vt 0.958744 0.660562
vt 0.960765 0.658528
vt 0.963623 0.658525
vt 0.965644 0.660554
vt 0.965644 0.663427
vt 0.963623 0.665462
vt 0.968253 0.660144
vt 0.967375 0.658525
vt 0.970084 0.658623
vt 0.969456 0.660139
vt 0.967947 0.666342
vt 0.967239 0.664607
vt 0.969496 0.664590
vt 0.968783 0.666338
vt 0.967033 0.673264
vt 0.965644 0.673563
vt 0.965699 0.671961
vt 0.967033 0.672516
vt 0.967403 0.661004
vt 0.965644 0.660276
vt 0.967358 0.666938
vt 0.965644 0.666232
vt 0.967560 0.673793
vt 0.967067 0.674990
vt 0.967403 0.662216
vt 0.965644 0.662744
vt 0.967360 0.667778
vt 0.965644 0.668515
vt 0.968306 0.673793
vt 0.969078 0.674990
vt 0.968253 0.663070
vt 0.967636 0.664590
vt 0.967953 0.668370
vt 0.967239 0.670118
vt 0.968832 0.673263
vt 0.970166 0.673818
vt 0.969456 0.663065
vt 0.969823 0.664473
vt 0.968789 0.668366
vt 0.969496 0.670101
vt 0.968832 0.672515
vt 0.970360 0.671880
vt 0.970306 0.662205
vt 0.971554 0.662721
vt 0.969377 0.667770
vt 0.971092 0.668475
vt 0.968305 0.671986
vt 0.969075 0.670118
vt 0.970306 0.660993
vt 0.971554 0.660253
vt 0.969375 0.666929
vt 0.971092 0.666193
vt 0.967559 0.671986
vt 0.966925 0.670453
vt 0.976551 0.667369
vt 0.978240 0.667278
vt 0.978433 0.668167
vt 0.977323 0.668877
vt 0.959875 0.679392
vt 0.958744 0.678865
vt 0.958814 0.677654
vt 0.959798 0.677351
vt 0.977775 0.671153
vt 0.978661 0.671864
vt 0.978456 0.672743
vt 0.977239 0.672641
vt 0.978661 0.673937
vt 0.977122 0.674673
vt 0.961323 0.666444
vt 0.962762 0.667423
vt 0.962521 0.668269
vt 0.960464 0.667845
vt 0.962521 0.669481
vt 0.960277 0.669878
vt 0.962762 0.670351
vt 0.960871 0.671353
vt 0.976432 0.665343
vt 0.978433 0.666081
vt 0.977345 0.677429
vt 0.975661 0.677718
vt 0.975492 0.677153
vt 0.976544 0.676338
vt 0.979065 0.671553
vt 0.979505 0.670439
vt 0.980250 0.670474
vt 0.980569 0.671407
vt 0.965348 0.671919
vt 0.964421 0.671572
vt 0.964396 0.670824
vt 0.965348 0.670423
vt 0.973513 0.677777
vt 0.974586 0.678350
vt 0.974453 0.679087
vt 0.972772 0.679087
vt 0.962440 0.673934
vt 0.963172 0.675476
vt 0.962731 0.675831
vt 0.961184 0.674397
vt 0.962356 0.676478
vt 0.960275 0.675603
vt 0.962268 0.677038
vt 0.960246 0.676845
vt 0.977646 0.678883
vt 0.975583 0.678462
vt 0.972742 0.669541
vt 0.971213 0.668642
vt 0.971344 0.668043
vt 0.973369 0.668421
vt 0.971294 0.667204
vt 0.973456 0.666771
vt 0.971092 0.666617
vt 0.972873 0.665612
vt 0.967692 0.678754
vt 0.965677 0.678318
vt 0.965779 0.677485
vt 0.967491 0.677260
vt 0.965644 0.676883
vt 0.966720 0.675965
vt 0.963605 0.678881
vt 0.964054 0.677662
vt 0.964890 0.677713
vt 0.965249 0.678781
vt 0.976664 0.662041
vt 0.975754 0.661135
vt 0.975945 0.660541
vt 0.977231 0.660875
vt 0.975841 0.659708
vt 0.977492 0.659119
vt 0.972664 0.662894
vt 0.974163 0.663447
vt 0.971554 0.661839
vt 0.965155 0.672392
vt 0.963172 0.672732
vt 0.971982 0.671612
vt 0.971092 0.672501
vt 0.973702 0.670722
vt 0.975492 0.670439
vt 0.975023 0.672664
vt 0.962805 0.670392
vt 0.964961 0.670423
vt 0.975519 0.661316
vt 0.975754 0.663519
vt 0.974933 0.664590
vt 0.974863 0.667460
vt 0.958744 0.670327
vt 0.959482 0.672392
vt 0.958910 0.667458
vt 0.959883 0.665465
vt 0.975492 0.672537
vt 0.975583 0.675409
vt 0.976140 0.670439
vt 0.961551 0.679912
vt 0.961551 0.677038
vt 0.975710 0.669601
vt 0.979103 0.661257
vt 0.979103 0.658525
vt 0.978398 0.663014
vt 0.963172 0.680718
vt 0.965631 0.680718
vt 0.969164 0.677040
vt 0.968366 0.674990
vt 0.969164 0.679241
vt 0.974863 0.666312
vt 0.974122 0.664590
vt 0.974863 0.668781
vt 0.974234 0.670439
vt 0.979029 0.679418
vt 0.979029 0.677141
vt 0.958928 0.675274
vt 0.958744 0.677038
vt 0.960156 0.673350
vt 0.961708 0.672392
vt 0.971742 0.676899
vt 0.971092 0.679087
vt 0.972717 0.675426
vt 0.974288 0.676859
vt 0.978661 0.673457
vt 0.980937 0.673457
vt 0.978275 0.675409
vn 0.3799 0.1203 -0.9172
vn 0.9194 0.0983 -0.3808
vn 0.9194 0.0983 0.3808
vn 0.3799 0.1203 0.9172
vn -0.3783 0.1511 0.9133
vn -0.9100 0.1726 0.3769
vn 0.9178 0.1148 -0.3802
vn -0.9100 0.1726 -0.3769
vn -0.3783 0.1511 -0.9133
vn 0.0000 -1.0000 0.0000
vn 0.0000 1.0000 -0.0000
vn -0.3822 0.0491 0.9228
vn -0.3822 0.0491 -0.9228
vn 0.3812 0.0878 -0.9203
vn 0.9178 0.1148 0.3802
vn -0.9237 0.0217 0.3826
vn 0.3812 0.0878 0.9203
vn -0.9237 0.0217 -0.3826
vn 0.4235 0.3521 -0.8347
vn 0.9135 0.2650 -0.3087
vn 0.9135 0.2650 0.3087
vn 0.4235 0.3521 0.8347
vn -0.1098 0.4549 0.8837
vn -0.7233 0.5837 0.3689
vn -0.7233 0.5837 -0.3689
vn -0.1098 0.4549 -0.8837
vn 0.1054 -0.9944 0.0000
vn -0.0709 -0.9968 -0.0371
vn 0.1777 -0.9838 0.0239
vn 0.0120 -0.9997 -0.0203
vn -0.0891 -0.9959 -0.0134
vn 0.2244 -0.9742 0.0238
vn -0.0373 -0.9991 -0.0225
vn -0.0891 -0.9959 0.0134
vn 0.2244 -0.9742 -0.0238
vn -0.0373 -0.9991 0.0225
vn -0.0709 -0.9968 0.0371
vn 0.1777 -0.9838 -0.0239
vn 0.0120 -0.9997 0.0203
vn -0.0392 -0.9985 0.0389
vn 0.0101 -0.9997 -0.0211
vn -0.0109 -0.9998 0.0190
vn -0.0251 -0.9995 -0.0210
vn -0.0109 -0.9998 -0.0190
vn -0.0251 -0.9995 0.0210
vn -0.0392 -0.9985 -0.0389
vn 0.0101 -0.9997 0.0211
vn 0.2368 0.6414 -0.7297
vn 0.6393 0.7111 -0.2924
vn 0.6393 0.7112 0.2924
vn 0.2368 0.6414 0.7297
vn -0.3740 0.5532 0.7444
vn -0.8123 0.4947 0.3090
vn -0.8123 0.4947 -0.3090
vn -0.3740 0.5532 -0.7444
vn 0.1272 0.6371 -0.7602
vn 0.5296 0.7912 -0.3057
vn 0.5296 0.7912 0.3057
vn 0.1272 0.6371 0.7602
vn -0.4804 0.4236 0.7680
vn -0.9072 0.2784 0.3153
vn -0.9072 0.2784 -0.3153
vn -0.4804 0.4236 -0.7680
vn 0.3906 0.5294 -0.7531
vn 0.8349 0.4482 -0.3194
vn 0.8349 0.4482 0.3194
vn 0.3906 0.5294 0.7531
vn -0.2249 0.6238 0.7485
vn -0.6213 0.7302 0.2844
vn -0.6213 0.7302 -0.2844
vn -0.2249 0.6238 -0.7485
vn -0.2370 0.4733 -0.8484
vn -0.8142 0.4614 -0.3524
vn -0.8142 0.4614 0.3524
vn -0.2370 0.4733 0.8484
vn 0.3147 0.4780 0.8200
vn 0.7467 0.5509 0.3729
vn 0.7467 0.5509 -0.3729
vn 0.3147 0.4780 -0.8200
vn -0.3777 0.6344 -0.6744
vn -0.6844 0.6893 -0.2377
vn -0.6844 0.6893 0.2377
vn -0.3777 0.6344 0.6744
vn 0.2477 0.5617 0.7894
vn 0.7795 0.5194 0.3502
vn 0.7795 0.5194 -0.3502
vn 0.2477 0.5617 -0.7894
vn -0.2370 0.5432 -0.8055
vn -0.7754 0.5296 -0.3439
vn -0.7754 0.5296 0.3439
vn -0.2370 0.5432 0.8055
vn 0.3950 0.6213 0.6767
vn 0.7038 0.6631 0.2550
vn 0.7038 0.6631 -0.2550
vn 0.3950 0.6213 -0.6767
vn -0.4670 0.5428 -0.6981
vn -0.7659 0.6001 -0.2307
vn -0.7659 0.6001 0.2307
vn -0.4670 0.5428 0.6981
vn 0.1932 0.5438 0.8167
vn 0.7252 0.5900 0.3549
vn 0.7252 0.5900 -0.3549
vn 0.1932 0.5438 -0.8167
usemtl Material.002
s 1
f 1/1/1 2/2/1 4/3/1 3/4/1
f 3/4/2 4/3/2 6/5/2 5/6/2
f 5/6/3 6/5/3 8/7/3 7/8/3
f 7/9/4 8/10/4 10/11/4 9/12/4
f 9/12/5 10/11/5 12/13/5 11/14/5
f 11/15/6 12/16/6 14/17/6 13/18/6
f 6/5/7 4/3/7 18/19/7 19/20/7
f 13/18/8 14/17/8 16/21/8 15/22/8
f 15/23/9 16/24/9 2/25/9 1/26/9
f 1/27/10 3/28/10 5/29/10 7/30/10 9/31/10 11/32/10 13/33/10 15/34/10
f 18/35/11 17/36/11 24/37/11 23/38/11 22/39/11 21/40/11 20/41/11 19/42/11
f 12/13/12 10/11/12 21/43/12 22/44/12
f 2/25/13 16/24/13 24/45/13 17/46/13
f 4/3/14 2/2/14 17/47/14 18/19/14
f 8/7/15 6/5/15 19/20/15 20/48/15
f 14/17/16 12/16/16 22/49/16 23/50/16
f 10/11/17 8/10/17 20/51/17 21/43/17
f 16/21/18 14/17/18 23/50/18 24/52/18
f 82/53/19 26/54/19 83/55/19
f 83/55/20 26/54/20 84/56/20
f 84/56/21 26/54/21 85/57/21
f 85/58/22 26/59/22 86/60/22
f 86/60/23 26/59/23 87/61/23
f 87/62/24 26/63/24 88/64/24
f 88/65/25 26/66/25 89/67/25
f 89/67/26 26/66/26 82/68/26
f 25/69/27 27/70/27 28/71/27 29/72/27 30/73/27 31/74/27 32/75/27 33/76/27
f 64/77/28 57/78/28 34/79/28 65/80/28
f 81/81/29 56/82/29 35/83/29 74/84/29
f 73/85/30 55/86/30 36/87/30 66/88/30
f 63/89/31 54/90/31 57/78/31 64/77/31
f 80/91/32 53/92/32 56/82/32 81/81/32
f 72/93/33 52/94/33 55/86/33 73/85/33
f 62/95/34 51/96/34 54/90/34 63/89/34
f 79/97/35 50/98/35 53/92/35 80/91/35
f 71/99/36 49/100/36 52/94/36 72/93/36
f 61/101/37 48/102/37 51/96/37 62/95/37
f 78/103/38 47/104/38 50/98/38 79/97/38
f 70/105/39 46/106/39 49/100/39 71/99/39
f 60/107/40 45/108/40 48/102/40 61/101/40
f 77/109/29 44/110/29 47/104/29 78/103/29
f 69/111/41 43/112/41 46/106/41 70/105/41
f 59/113/42 42/114/42 45/108/42 60/107/42
f 76/115/32 41/116/32 44/110/32 77/109/32
f 68/117/43 40/118/43 43/112/43 69/111/43
f 58/119/44 39/120/44 42/114/44 59/113/44
f 75/121/35 38/122/35 41/116/35 76/115/35
f 67/123/45 37/124/45 40/118/45 68/117/45
f 65/80/46 34/79/46 39/120/46 58/119/46
f 74/84/38 35/83/38 38/122/38 75/121/38
f 66/88/47 36/87/47 37/124/47 67/123/47
f 97/125/48 65/126/48 58/127/48 90/128/48
f 90/129/49 58/130/49 59/131/49 91/132/49
f 91/133/50 59/134/50 60/135/50 92/136/50
f 92/136/51 60/135/51 61/137/51 93/138/51
f 93/139/52 61/140/52 62/141/52 94/142/52
f 94/142/53 62/141/53 63/143/53 95/144/53
f 95/144/54 63/143/54 64/145/54 96/146/54
f 96/147/55 64/148/55 65/126/55 97/125/55
f 113/149/56 66/150/56 67/151/56 106/152/56
f 106/153/57 67/154/57 68/155/57 107/156/57
f 107/157/58 68/158/58 69/159/58 108/160/58
f 108/161/59 69/162/59 70/163/59 109/164/59
f 109/165/60 70/166/60 71/167/60 110/168/60
f 110/168/61 71/167/61 72/169/61 111/170/61
f 111/170/62 72/169/62 73/171/62 112/172/62
f 112/173/63 73/174/63 66/150/63 113/149/63
f 105/175/64 74/176/64 75/177/64 98/178/64
f 98/178/65 75/177/65 76/179/65 99/180/65
f 99/180/66 76/179/66 77/181/66 100/182/66
f 100/183/67 77/184/67 78/185/67 101/186/67
f 101/186/68 78/185/68 79/187/68 102/188/68
f 102/189/69 79/190/69 80/191/69 103/192/69
f 103/193/70 80/194/70 81/195/70 104/196/70
f 104/196/71 81/195/71 74/197/71 105/198/71
f 55/199/72 89/67/72 82/68/72 36/200/72
f 52/201/73 88/65/73 89/67/73 55/199/73
f 49/202/74 87/62/74 88/64/74 52/203/74
f 46/204/75 86/60/75 87/61/75 49/205/75
f 43/206/76 85/58/76 86/60/76 46/204/76
f 40/207/77 84/208/77 85/58/77 43/206/77
f 37/209/78 83/55/78 84/56/78 40/210/78
f 36/200/79 82/68/79 83/211/79 37/212/79
f 33/213/80 96/147/80 97/125/80 25/214/80
f 32/215/81 95/144/81 96/146/81 33/216/81
f 31/217/82 94/142/82 95/144/82 32/215/82
f 30/218/83 93/139/83 94/142/83 31/217/83
f 29/219/84 92/136/84 93/138/84 30/220/84
f 28/221/85 91/133/85 92/136/85 29/219/85
f 27/222/86 90/129/86 91/132/86 28/223/86
f 25/214/87 97/125/87 90/128/87 27/224/87
f 57/225/88 104/196/88 105/198/88 34/226/88
f 54/227/89 103/193/89 104/196/89 57/225/89
f 51/228/90 102/189/90 103/192/90 54/229/90
f 48/230/91 101/186/91 102/188/91 51/231/91
f 45/232/92 100/183/92 101/186/92 48/230/92
f 42/233/93 99/180/93 100/182/93 45/234/93
f 39/235/94 98/178/94 99/180/94 42/233/94
f 34/236/95 105/175/95 98/178/95 39/235/95
f 56/237/96 112/173/96 113/149/96 35/238/96
f 53/239/97 111/170/97 112/172/97 56/240/97
f 50/241/98 110/168/98 111/170/98 53/239/98
f 47/242/99 109/165/99 110/168/99 50/241/99
f 44/243/100 108/161/100 109/164/100 47/244/100
f 41/245/101 107/246/101 108/161/101 44/243/101
f 38/247/102 106/153/102 107/156/102 41/248/102
f 35/238/103 113/149/103 106/152/103 38/249/103
