# Blender v2.79 (sub 0) OBJ File: ''
# www.blender.org
mtllib small_bush.mtl
o Tree_1_Cylinder.004
v -0.810903 -1.895002 0.043832
v -0.749502 -1.671439 0.043832
v -0.789722 -1.894649 0.052607
v -0.728369 -1.672912 0.052607
v -0.780948 -1.894503 0.073791
v -0.719616 -1.673522 0.073791
v -0.789722 -1.894649 0.094975
v -0.728369 -1.672912 0.094975
v -0.810903 -1.895002 0.103750
v -0.749502 -1.671439 0.103750
v -0.832084 -1.895356 0.094975
v -0.770635 -1.669966 0.094975
v -0.840858 -1.895502 0.073791
v -0.779388 -1.669356 0.073791
v -0.832084 -1.895356 0.052607
v -0.770635 -1.669966 0.052607
v -0.744125 -1.722196 0.073791
v -0.548364 -1.519321 0.222933
v -0.827284 -1.467533 0.315111
v -0.999668 -1.435525 0.073791
v -0.827284 -1.467533 -0.167529
v -0.548364 -1.519321 -0.075352
v -0.773832 -0.978245 0.073791
v -0.784811 -1.687930 0.215634
v -0.618065 -1.687930 0.161454
v -0.680940 -1.517360 0.303298
v -0.516996 -1.547800 0.073791
v -0.618065 -1.687930 -0.013872
v -0.887867 -1.687930 0.073791
v -0.946211 -1.468107 0.215634
v -0.784811 -1.687930 -0.068052
v -0.946211 -1.468107 -0.068053
v -0.680940 -1.517361 -0.155717
v -0.582805 -1.170489 0.124058
v -0.582805 -1.170489 0.023524
v -0.733323 -1.206255 0.236460
v -0.640298 -1.184150 0.205393
v -0.883840 -1.242021 0.124058
v -0.826347 -1.228359 0.205393
v -0.826347 -1.228359 -0.057812
v -0.883840 -1.242021 0.023524
v -0.640298 -1.184151 -0.057812
v -0.733323 -1.206255 -0.088879
v -0.786805 -1.796372 0.052607
v -0.795452 -1.794879 0.073791
v -0.786805 -1.796372 0.094975
v -0.765930 -1.799976 0.103750
v -0.745054 -1.803580 0.094975
v -0.736408 -1.805073 0.073791
v -0.745054 -1.803580 0.052607
v -0.765930 -1.799976 0.043832
vt 0.719398 0.239527
vt 0.719842 0.243217
vt 0.719149 0.243435
vt 0.718698 0.239684
vt 0.720779 0.240693
vt 0.720912 0.236587
vt 0.721527 0.236694
vt 0.721392 0.240828
vt 0.722265 0.236700
vt 0.722132 0.240806
vt 0.722694 0.236603
vt 0.722563 0.240642
vt 0.701116 0.241980
vt 0.701595 0.238055
vt 0.702317 0.238221
vt 0.701846 0.242081
vt 0.702945 0.238177
vt 0.702478 0.242010
vt 0.720517 0.243258
vt 0.720779 0.243534
vt 0.720474 0.243884
vt 0.719781 0.244101
vt 0.719106 0.244060
vt 0.718844 0.243784
vt 0.723444 0.239187
vt 0.723684 0.242796
vt 0.722937 0.242862
vt 0.722694 0.239227
vt 0.720081 0.239629
vt 0.719228 0.245882
vt 0.718698 0.245361
vt 0.718698 0.244623
vt 0.719228 0.244101
vt 0.719979 0.244101
vt 0.720510 0.244623
vt 0.720509 0.245361
vt 0.719979 0.245882
vt 0.962889 0.669937
vt 0.961989 0.666617
vt 0.965684 0.668103
vt 0.964704 0.662063
vt 0.962626 0.665108
vt 0.961202 0.661635
vt 0.965388 0.672017
vt 0.961510 0.672949
vt 0.959410 0.669612
vt 0.965188 0.653929
vt 0.974970 0.673595
vt 0.973347 0.675771
vt 0.969570 0.669920
vt 0.977914 0.667994
vt 0.977188 0.670946
vt 0.972886 0.667239
vt 0.973454 0.652089
vt 0.976057 0.652304
vt 0.975264 0.657701
vt 0.967112 0.653935
vt 0.969941 0.652258
vt 0.971590 0.659774
vt 0.967112 0.654732
vt 0.971526 0.668777
vt 0.973130 0.665895
vt 0.973412 0.658418
vt 0.970493 0.661251
vt 0.976057 0.664087
vt 0.720116 0.236598
vt 0.719435 0.236867
vt 0.720915 0.243439
vt 0.721531 0.243522
vt 0.722268 0.243552
vt 0.979407 0.659431
vt 0.981545 0.659617
vt 0.978488 0.663919
vt 0.722694 0.243512
vt 0.701612 0.245292
vt 0.702322 0.245512
vt 0.967112 0.664087
vt 0.702945 0.245490
vt 0.723684 0.236587
vt 0.722939 0.236676
vt 0.966453 0.649270
vt 0.720779 0.236587
vt 0.977235 0.659043
vt 0.978954 0.655209
vt 0.982165 0.656616
vt 0.967764 0.670232
vt 0.967112 0.662439
vt 0.963070 0.653208
vt 0.958421 0.659925
vt 0.967388 0.650943
vt 0.958421 0.672949
vt 0.970950 0.649270
vt 0.978954 0.649270
vt 0.976057 0.653967
vt 0.982646 0.650459
vt 0.984988 0.655732
vt 0.984988 0.649793
vt 0.977914 0.675837
vt 0.958933 0.663851
vt 0.965175 0.665108
vn 0.3800 -0.0485 -0.9237
vn 0.9166 -0.1170 -0.3823
vn 0.9166 -0.1170 0.3823
vn 0.3800 -0.0485 0.9237
vn -0.3800 0.0486 0.9237
vn -0.9166 0.1173 0.3823
vn 0.0695 0.9976 0.0000
vn -0.9166 0.1173 -0.3823
vn -0.3800 0.0486 -0.9237
vn 0.0167 -0.9999 0.0000
vn 0.0834 -0.9629 0.2565
vn 0.8531 -0.4494 0.2652
vn -0.2287 -0.9592 0.1661
vn -0.2287 -0.9592 -0.1661
vn 0.0834 -0.9629 -0.2565
vn 0.9733 0.1462 0.1768
vn 0.1567 0.2326 0.9599
vn -0.8279 0.3912 0.4019
vn -0.6058 0.3337 -0.7223
vn 0.5115 0.1842 -0.8393
vn 0.7725 0.2426 0.5868
vn -0.3736 0.3880 0.8426
vn -0.8580 0.5136 0.0000
vn -0.3736 0.3880 -0.8426
vn 0.7725 0.2426 -0.5868
vn 0.5460 0.6730 -0.4990
vn 0.3673 -0.1769 -0.9131
vn -0.3787 0.4920 -0.7839
vn 0.8373 -0.4138 -0.3574
vn 0.8373 -0.4138 0.3574
vn -0.9230 0.3849 0.0000
vn 0.3673 -0.1769 0.9131
vn -0.3681 0.1712 0.9139
vn -0.3787 0.4920 0.7839
vn -0.8489 0.3857 0.3613
vn -0.8489 0.3857 -0.3613
vn 0.5460 0.6730 0.4990
vn -0.3681 0.1712 -0.9139
vn 0.1257 0.5909 -0.7969
vn 0.2546 0.2439 -0.9358
vn 0.1567 0.2326 -0.9599
vn -0.7762 0.4088 -0.4800
vn -0.7747 0.4140 -0.4780
vn -0.7746 0.4141 -0.4780
vn -0.7763 0.4086 -0.4801
vn -0.8279 0.3912 -0.4019
vn -0.7747 0.4140 0.4780
vn -0.7762 0.4088 0.4800
vn -0.7746 0.4141 0.4780
vn -0.7763 0.4086 0.4801
vn -0.6058 0.3337 0.7223
vn 0.1257 0.5909 0.7969
vn 0.2546 0.2439 0.9358
vn 0.5115 0.1842 0.8393
vn 0.7093 0.7049 0.0000
vn 0.9851 0.1718 0.0000
vn 0.9733 0.1462 -0.1768
vn 0.4539 -0.4648 -0.7602
vn 0.2559 -0.5606 -0.7876
vn -0.0706 -0.4216 -0.9040
vn -0.5794 -0.4254 -0.6952
vn -0.6956 -0.5107 -0.5054
vn -0.8867 -0.3928 -0.2440
vn -0.8867 -0.3928 0.2440
vn -0.6956 -0.5107 0.5054
vn -0.5794 -0.4254 0.6952
vn 0.8531 -0.4494 -0.2652
vn 0.8111 -0.5850 0.0000
vn 0.2623 -0.9650 0.0000
vn -0.0706 -0.4216 0.9040
vn 0.2559 -0.5606 0.7876
vn 0.4539 -0.4648 0.7602
usemtl Material.002
s 1
f 51/1/1 2/2/1 4/3/1 50/4/1
f 50/5/2 4/6/2 6/7/2 49/8/2
f 49/8/3 6/7/3 8/9/3 48/10/3
f 48/10/4 8/9/4 10/11/4 47/12/4
f 47/13/5 10/14/5 12/15/5 46/16/5
f 46/16/6 12/15/6 14/17/6 45/18/6
f 4/3/7 2/2/7 16/19/7 14/20/7 12/21/7 10/22/7 8/23/7 6/24/7
f 45/25/8 14/26/8 16/27/8 44/28/8
f 44/29/9 16/19/9 2/2/9 51/1/9
f 1/30/10 3/31/10 5/32/10 7/33/10 9/34/10 11/35/10 13/36/10 15/37/10
f 17/38/11 25/39/11 24/40/11
f 18/41/12 25/42/12 27/43/12
f 17/38/13 24/40/13 29/44/13
f 17/38/14 29/44/14 31/45/14
f 17/38/15 31/45/15 28/46/15
f 18/41/16 27/43/16 34/47/16
f 19/48/17 26/49/17 36/50/17
f 20/51/18 30/52/18 38/53/18
f 21/54/19 32/55/19 40/56/19
f 22/57/20 33/58/20 42/59/20
f 18/41/21 34/47/21 37/60/21
f 19/48/22 36/50/22 39/61/22
f 20/51/23 38/53/23 41/62/23
f 21/54/24 40/56/24 43/63/24
f 22/57/25 42/59/25 35/64/25
f 35/64/26 42/59/26 23/65/26
f 1/66/27 51/1/27 50/4/27 3/67/27
f 43/63/28 40/56/28 23/65/28
f 3/68/29 50/5/29 49/8/29 5/69/29
f 5/69/30 49/8/30 48/10/30 7/70/30
f 41/71/31 38/72/31 23/73/31
f 7/70/32 48/10/32 47/12/32 9/74/32
f 9/75/33 47/13/33 46/16/33 11/76/33
f 39/61/34 36/50/34 23/77/34
f 11/76/35 46/16/35 45/18/35 13/78/35
f 13/79/36 45/25/36 44/28/36 15/80/36
f 37/60/37 34/47/37 23/81/37
f 15/82/38 44/29/38 51/1/38 1/66/38
f 42/59/39 43/63/39 23/65/39
f 42/59/40 33/58/40 43/63/40
f 33/58/41 21/54/41 43/63/41
f 40/83/42 41/71/43 23/73/44
f 40/83/42 32/84/45 41/71/43
f 32/84/46 20/85/46 41/71/46
f 38/53/47 39/61/48 23/77/49
f 38/53/47 30/52/50 39/61/48
f 30/52/51 19/48/51 39/61/51
f 36/50/52 37/86/52 23/77/52
f 36/50/53 26/49/53 37/86/53
f 26/87/54 18/41/54 37/60/54
f 34/47/55 35/88/55 23/81/55
f 34/47/56 27/43/56 35/88/56
f 27/43/57 22/89/57 35/88/57
f 28/90/58 33/58/58 22/57/58
f 28/46/59 31/45/59 33/91/59
f 31/92/60 21/54/60 33/58/60
f 31/93/61 32/84/61 21/94/61
f 31/93/62 29/95/62 32/84/62
f 29/95/63 20/85/63 32/84/63
f 29/95/64 30/96/64 20/85/64
f 29/95/65 24/97/65 30/96/65
f 24/98/66 19/48/66 30/52/66
f 27/43/67 28/99/67 22/89/67
f 27/43/68 25/42/68 28/99/68
f 25/39/69 17/38/69 28/46/69
f 24/98/70 26/49/70 19/48/70
f 24/40/71 25/39/71 26/100/71
f 25/42/72 18/41/72 26/87/72
